<?xml version="1.0" encoding="utf-8"?>
<!-- Generator: Adobe Illustrator 21.0.2, SVG Export Plug-In . SVG Version: 6.00 Build 0)  -->
<svg version="1.0" id="Layer_1" xmlns="http://www.w3.org/2000/svg" xmlns:xlink="http://www.w3.org/1999/xlink" x="0px" y="0px"
	 viewBox="0 0 60 60" style="enable-background:new 0 0 60 60;" xml:space="preserve">
<style type="text/css">
	.st0{fill:#6699CC;}
</style>
<g>
	<path class="st0" d="M54,46H6.2c-0.6,0-1.1,0.3-1.5,0.8C4.2,47.4,4,48,4,48.7v5.4c0,0.7,0.2,1.4,0.6,1.9c0.4,0.5,0.9,0.8,1.5,0.8
		H54c0.6,0,1.1-0.3,1.5-0.8c0.4-0.5,0.6-1.2,0.6-1.9v-5.4c0-0.7-0.2-1.4-0.6-1.9C55.1,46.3,54.6,46,54,46z"/>
	<path class="st0" d="M55.5,3.8C55.1,3.3,54.6,3,54,3H6.2C5.6,3,5.1,3.3,4.6,3.8C4.2,4.3,4,5,4,5.7v5.4c0,0.7,0.2,1.4,0.6,1.9
		c0.4,0.5,0.9,0.8,1.5,0.8H54c0.6,0,1.1-0.3,1.5-0.8c0.4-0.5,0.6-1.2,0.6-1.9V5.7C56.2,5,55.9,4.3,55.5,3.8z"/>
	<path class="st0" d="M54,24.5H6.2c-0.6,0-1.1,0.3-1.5,0.8C4.2,25.8,4,26.5,4,27.2v5.4c0,0.7,0.2,1.4,0.6,1.9
		c0.4,0.5,0.9,0.8,1.5,0.8H54c0.6,0,1.1-0.3,1.5-0.8c0.4-0.5,0.6-1.2,0.6-1.9v-5.4c0-0.7-0.2-1.4-0.6-1.9
		C55.1,24.8,54.6,24.5,54,24.5z"/>
</g>
</svg>
