<?xml version="1.0" encoding="utf-8"?>
<!-- Generator: Adobe Illustrator 21.0.2, SVG Export Plug-In . SVG Version: 6.00 Build 0)  -->
<svg version="1.0" id="Layer_1" xmlns="http://www.w3.org/2000/svg" xmlns:xlink="http://www.w3.org/1999/xlink" x="0px" y="0px"
	 viewBox="0 0 75 75" style="enable-background:new 0 0 75 75;" xml:space="preserve">
<style type="text/css">
	.st0{fill:#5EFCE8;}
</style>
<g>
	<path class="st0" d="M12,74.5C5.7,74.5,0.5,69.3,0.5,63V12C0.5,5.7,5.7,0.5,12,0.5h51c6.3,0,11.5,5.2,11.5,11.5v51
		c0,6.3-5.2,11.5-11.5,11.5H12z M43.9,57.1h22.7v-8.5H53.7V16.1h-9.8V57.1z M31.7,57.1h10l-11.7-41h-9.6l-12.3,41h9.1l2-8.3h10.5
		L31.7,57.1z M21.2,41l3.3-13.8L27.8,41H21.2z"/>
	<path d="M63,1c6.1,0,11,4.9,11,11v51c0,6.1-4.9,11-11,11H12C5.9,74,1,69.1,1,63V12C1,5.9,5.9,1,12,1H63 M43.4,57.6h1h21.7h1v-1
		v-7.5v-1h-1H54.2V16.6v-1h-1h-8.8h-1v1v40V57.6 M7.5,57.6h1.3h8.1h0.8l0.2-0.8l1.8-7.5h9.7l1.8,7.5l0.2,0.8h0.8h9h1.3l-0.4-1.3
		l-11.4-40l-0.2-0.7h-0.8h-8.8h-0.7l-0.2,0.7l-12,40L7.5,57.6 M24.4,29.4l2.7,11.1h-5.4L24.4,29.4 M63,0H12C5.4,0,0,5.4,0,12v51
		c0,6.6,5.4,12,12,12h51c6.6,0,12-5.4,12-12V12C75,5.4,69.6,0,63,0L63,0z M44.4,56.6v-40h8.8v32.5h12.9v7.5H44.4L44.4,56.6z
		 M8.8,56.6l12-40h8.8l11.4,40h-9l-2-8.3H18.9l-2,8.3H8.8L8.8,56.6z M24.4,25.1l-3.9,16.4h7.9L24.4,25.1L24.4,25.1z"/>
</g>
</svg>
